<svg width="315.9909240722656px" height="73.6727310180664px" xmlns="http://www.w3.org/2000/svg" viewBox="92.0045379638672 38.1636344909668 315.9909240722656 73.6727310180664" style="background: rgba(0, 0, 0, 0);" preserveAspectRatio="xMidYMid"><filter id="editing-goldstamp"><feFlood flood-color="#797549" result="flood"></feFlood><feMorphology operator="dilate" radius="2" in="SourceGraphic" result="outline"></feMorphology><feComposite operator="in" in="flood" in2="outline" result="outline2"></feComposite><feGaussianBlur stdDeviation="4" in="SourceAlpha" result="blur"></feGaussianBlur><feSpecularLighting surfaceScale="2" specularConstant="0.7" specularExponent="10" lighting-color="#white" in="blur" result="specular"><fePointLight x="200" y="-1000" z="300"></fePointLight></feSpecularLighting><feComposite operator="in" in="specular" in2="SourceGraphic" result="specular2"></feComposite><feComposite in="SourceGraphic" in2="specular2" operator="arithmetic" k1="3" k2="2" k3="1" k4="0" result="specular3"></feComposite><feMerge><feMergeNode in="outline2"></feMergeNode><feMergeNode in="specular3"></feMergeNode></feMerge></filter><g filter="url(#editing-goldstamp)"><g transform="translate(93.40245884656906, 93.37500190734863)"><path d="M5.00 0L-0.64 0L8.23-32.34L18.47-32.34L20.73-13.87L29.84-32.34L38.42-32.34L39.30-8.13L39.30-8.13Q39.49-3.33 41.85-1.86L41.85-1.86L41.85-1.86Q41.31-0.88 39.74 0.05L39.74 0.05L39.74 0.05Q38.17 0.98 36.09 0.98L36.09 0.98L36.09 0.98Q34.01 0.98 32.78 0.39L32.78 0.39L32.78 0.39Q31.56-0.20 30.87-1.18L30.87-1.18L30.87-1.18Q29.64-2.94 29.64-6.32L29.64-6.32L29.64-21.46L19.99 0L13.92 0L10.49-22.00L5.00 0ZM54.64 0.98L54.64 0.98L54.64 0.98Q43.86 0.98 43.86-9.16L43.86-9.16L43.86-9.16Q43.86-16.37 47.82-21.02L47.82-21.02L47.82-21.02Q52.04-25.97 59.34-25.97L59.34-25.97L59.34-25.97Q64.63-25.97 67.33-23.52L67.33-23.52L67.33-23.52Q70.02-21.07 70.02-15.93L70.02-15.93L70.02-15.93Q70.02-8.09 65.81-3.53L65.81-3.53L65.81-3.53Q61.69 0.98 54.64 0.98ZM55.91-20.34L55.91-20.34L55.91-20.34Q55.32-19.01 54.86-17.03L54.86-17.03L54.86-17.03Q54.39-15.04 53.80-11.91L53.80-11.91L53.80-11.91Q53.21-8.77 53.21-4.90L53.21-4.90L53.21-4.90Q53.21-3.63 53.63-2.79L53.63-2.79L53.63-2.79Q54.05-1.96 55.17-1.96L55.17-1.96L55.17-1.96Q56.30-1.96 57.01-2.50L57.01-2.50L57.01-2.50Q57.72-3.04 58.26-4.31L58.26-4.31L58.26-4.31Q59.24-6.57 60.03-10.76L60.03-10.76L60.03-10.76Q60.81-14.95 60.88-16.76L60.88-16.76L60.88-16.76Q60.96-18.57 60.96-19.92L60.96-19.92L60.96-19.92Q60.96-21.27 60.56-22.15L60.56-22.15L60.56-22.15Q60.17-23.03 59.07-23.03L59.07-23.03L59.07-23.03Q57.97-23.03 57.23-22.34L57.23-22.34L57.23-22.34Q56.50-21.66 55.91-20.34ZM90.70-24.16L90.70-24.16L90.70-24.16Q92.32-25.97 95.11-25.97L95.11-25.97L95.11-25.97Q96.82-25.97 98.15-25.04L98.15-25.04L98.15-25.04Q99.47-24.11 99.47-22.37L99.47-22.37L99.47-22.37Q99.47-20.63 98.93-18.77L98.93-18.77L98.93-18.77Q98.39-16.91 97.56-14.99L97.56-14.99L97.56-14.99Q95.89-11.27 93.59-8.18L93.59-8.18L93.59-8.18Q90.36-3.72 87.24-1.37L87.24-1.37L87.24-1.37Q84.13 0.98 80.75 0.98L80.75 0.98L80.75 0.98Q78.01 0.98 76.34 0.34L76.34 0.34L76.34 0.34Q76.05-9.95 75.68-13.62L75.68-13.62L75.68-13.62Q75.31-17.30 75.02-19.31L75.02-19.31L75.02-19.31Q74.53-23.23 73.06-24.16L73.06-24.16L73.06-24.16Q74.19-25.14 75.29-25.55L75.29-25.55L75.29-25.55Q76.39-25.97 78.67-25.97L78.67-25.97L78.67-25.97Q80.95-25.97 82.57-24.18L82.57-24.18L82.57-24.18Q84.18-22.39 84.50-19.23L84.50-19.23L84.50-19.23Q84.82-16.07 84.82-12.25L84.82-12.25L84.82-12.25Q84.82-8.43 84.53-3.82L84.53-3.82L84.53-3.82Q86.04-4.90 87.66-8.18L87.66-8.18L87.66-8.18Q89.87-12.74 90.65-18.23L90.65-18.23L90.65-18.23Q90.90-19.89 90.90-21.66L90.90-21.66L90.90-21.66Q90.90-23.42 90.70-24.16ZM112.55-2.70L112.55-2.70L112.55-2.70Q111.03 0.98 106.18 0.98L106.18 0.98L106.18 0.98Q103.68 0.98 102.12-0.73L102.12-0.73L102.12-0.73Q100.79-2.25 100.79-3.77L100.79-3.77L100.79-3.77Q100.79-7.74 102.61-15.48L102.61-15.48L104.42-24.99L114.37-25.97L111.38-10.49L111.38-10.49Q110.54-6.86 110.54-5.59L110.54-5.59L110.54-5.59Q110.54-2.79 112.55-2.70ZM105.30-31.80L105.30-31.80L105.30-31.80Q105.30-33.71 106.89-34.74L106.89-34.74L106.89-34.74Q108.49-35.77 110.79-35.77L110.79-35.77L110.79-35.77Q113.09-35.77 114.49-34.74L114.49-34.74L114.49-34.74Q115.89-33.71 115.89-31.80L115.89-31.80L115.89-31.80Q115.89-29.89 114.34-28.91L114.34-28.91L114.34-28.91Q112.80-27.93 110.50-27.93L110.50-27.93L110.50-27.93Q108.19-27.93 106.75-28.91L106.75-28.91L106.75-28.91Q105.30-29.89 105.30-31.80ZM136.56-8.28L136.56-8.28L136.56-8.28Q137.79-7.45 137.79-5.61L137.79-5.61L137.79-5.61Q137.79-3.77 136.86-2.60L136.86-2.60L136.86-2.60Q135.93-1.42 134.41-0.64L134.41-0.64L134.41-0.64Q131.27 0.98 127.89 0.98L127.89 0.98L127.89 0.98Q124.51 0.98 122.52 0.24L122.52 0.24L122.52 0.24Q120.54-0.49 119.22-1.86L119.22-1.86L119.22-1.86Q116.62-4.46 116.62-9.21L116.62-9.21L116.62-9.21Q116.62-16.61 120.64-21.12L120.64-21.12L120.64-21.12Q124.95-25.97 132.45-25.97L132.45-25.97L132.45-25.97Q137.10-25.97 139.41-24.01L139.41-24.01L139.41-24.01Q141.12-22.54 141.12-20.14L141.12-20.14L141.12-20.14Q141.12-11.52 126.22-11.52L126.22-11.52L126.22-11.52Q126.03-10.24 126.03-9.16L126.03-9.16L126.03-9.16Q126.03-6.91 127.03-6.05L127.03-6.05L127.03-6.05Q128.04-5.19 129.90-5.19L129.90-5.19L129.90-5.19Q131.76-5.19 133.75-6.05L133.75-6.05L133.75-6.05Q135.73-6.91 136.56-8.28ZM126.57-13.62L126.57-13.62L126.57-13.62Q130.05-13.62 132.06-15.78L132.06-15.78L132.06-15.78Q134.06-17.84 134.06-21.12L134.06-21.12L134.06-21.12Q134.06-22.25 133.65-22.86L133.65-22.86L133.65-22.86Q133.23-23.47 132.40-23.47L132.40-23.47L132.40-23.47Q131.56-23.47 130.85-23.15L130.85-23.15L130.85-23.15Q130.14-22.83 129.41-21.76L129.41-21.76L129.41-21.76Q127.60-19.31 126.57-13.62ZM157.44-17.20L157.44-17.20L157.44-17.20Q158.12-19.01 158.12-20.58L158.12-20.58L158.12-20.58Q158.12-23.47 155.77-23.47L155.77-23.47L155.77-23.47Q154.55-23.47 153.54-22.37L153.54-22.37L153.54-22.37Q152.54-21.27 152.54-19.89L152.54-19.89L152.54-19.89Q152.54-18.91 153.32-18.13L153.32-18.13L153.32-18.13Q154.45-17.05 157.34-15.29L157.34-15.29L157.34-15.29Q160.23-13.52 161.33-12.08L161.33-12.08L161.33-12.08Q162.44-10.63 162.44-8.65L162.44-8.65L162.44-8.65Q162.44-6.66 161.48-4.85L161.48-4.85L161.48-4.85Q160.52-3.04 158.81-1.76L158.81-1.76L158.81-1.76Q155.13 0.98 149.25 0.98L149.25 0.98L149.25 0.98Q146.07 0.98 143.62-0.69L143.62-0.69L143.62-0.69Q141.17-2.30 141.17-4.21L141.17-4.21L141.17-4.21Q141.17-6.13 142.57-7.25L142.57-7.25L142.57-7.25Q143.96-8.38 146.02-8.38L146.02-8.38L146.02-8.38Q148.08-8.38 149.35-7.60L149.35-7.60L149.35-7.60Q148.72-5.98 148.72-4.90L148.72-4.90L148.72-4.90Q148.72-1.67 151.46-1.67L151.46-1.67L151.46-1.67Q152.63-1.67 153.42-2.40L153.42-2.40L153.42-2.40Q154.20-3.14 154.20-4.41L154.20-4.41L154.20-4.41Q154.20-6.91 149.99-9.55L149.99-9.55L149.99-9.55Q146.56-11.81 145.78-12.69L145.78-12.69L145.78-12.69Q144.45-14.26 144.45-16.22L144.45-16.22L144.45-16.22Q144.45-18.18 145.38-20.04L145.38-20.04L145.38-20.04Q146.31-21.90 148.03-23.23L148.03-23.23L148.03-23.23Q151.61-25.97 157.83-25.97L157.83-25.97L157.83-25.97Q161.01-25.97 162.90-24.70L162.90-24.70L162.90-24.70Q164.79-23.42 164.79-21.27L164.79-21.27L164.79-21.27Q164.79-19.11 163.49-17.89L163.49-17.89L163.49-17.89Q162.19-16.66 159.84-16.66L159.84-16.66L159.84-16.66Q158.22-16.66 157.44-17.20ZM191.25-5.44L191.25-5.44L191.25-5.44Q191.25-3.28 193.45-2.65L193.45-2.65L193.45-2.65Q192.91-0.83 190.81 0.15L190.81 0.15L190.81 0.15Q189.04 0.98 187.11 0.98L187.11 0.98L187.11 0.98Q185.17 0.98 184.17 0.47L184.17 0.47L184.17 0.47Q183.16-0.05 182.62-0.88L182.62-0.88L182.62-0.88Q181.74-2.16 181.74-4.56L181.74-4.56L181.74-4.56Q181.74-5.98 182.53-9.90L182.53-9.90L183.21-13.62L183.21-13.62Q184.04-17.89 184.04-19.45L184.04-19.45L184.04-19.45Q184.04-22.20 182.53-22.20L182.53-22.20L182.53-22.20Q180.61-22.20 179.39-19.40L179.39-19.40L179.39-19.40Q178.90-18.33 178.56-16.71L178.56-16.71L175.22 0L165.38 0.98L172.28-34.30L182.13-35.28L181.74-33.32L181.74-33.32Q180.37-25.77 179.19-23.23L179.19-23.23L179.19-23.23Q181.94-25.97 186.98-25.97L186.98-25.97L186.98-25.97Q192.32-25.97 193.31-22.44L193.31-22.44L193.31-22.44Q193.65-21.32 193.65-20.34L193.65-20.34L193.65-20.34Q193.65-19.36 193.57-18.60L193.57-18.60L193.57-18.60Q193.50-17.84 193.26-16.46L193.26-16.46L192.62-12.94L191.49-7.40L191.49-7.40Q191.25-6.27 191.25-5.44ZM212.86-25.97L212.86-25.97L212.86-25.97Q214.62-25.97 215.99-25.58L215.99-25.58L215.99-25.58Q216.04-25.77 216.14-26.31L216.14-26.31L216.38-27.83L216.38-27.83Q216.58-28.81 216.87-30.43L216.87-30.43L217.66-34.30L227.41-35.28L221.97-6.86L221.97-6.86Q221.92-6.57 221.92-6.08L221.92-6.08L221.92-5.29L221.92-5.29Q221.92-4.21 222.46-3.41L222.46-3.41L222.46-3.41Q223.00-2.60 223.88-2.60L223.88-2.60L223.88-2.60Q222.90-0.29 219.91 0.69L219.91 0.69L219.91 0.69Q218.88 0.98 217.44 0.98L217.44 0.98L217.44 0.98Q215.99 0.98 214.67 0.22L214.67 0.22L214.67 0.22Q213.35-0.54 212.95-1.81L212.95-1.81L212.95-1.81Q212.17-0.54 210.60 0.22L210.60 0.22L210.60 0.22Q209.03 0.98 206.76 0.98L206.76 0.98L206.76 0.98Q204.48 0.98 202.59 0.39L202.59 0.39L202.59 0.39Q200.70-0.20 199.53-1.47L199.53-1.47L199.53-1.47Q197.37-3.97 197.37-9.65L197.37-9.65L197.37-9.65Q197.37-17.00 201.68-21.46L201.68-21.46L201.68-21.46Q206.00-25.97 212.86-25.97ZM212.51-23.03L212.51-23.03L212.51-23.03Q210.70-23.03 209.72-21.07L209.72-21.07L209.72-21.07Q208.74-19.11 207.74-14.26L207.74-14.26L207.74-14.26Q206.73-9.41 206.73-5.05L206.73-5.05L206.73-5.05Q206.73-2.06 208.50-2.06L208.50-2.06L208.50-2.06Q210.06-2.06 211.17-3.63L211.17-3.63L211.17-3.63Q212.27-5.19 212.71-7.79L212.71-7.79L215.35-22.15L215.35-22.15Q214.33-23.03 212.51-23.03ZM227.41-2.35L227.41-2.35L233.48-34.30L243.43-35.28L241.91-27.78L241.91-27.78Q241.37-25.48 240.69-23.86L240.69-23.86L240.69-23.86Q241.77-25.23 244.12-25.77L244.12-25.77L244.12-25.77Q244.80-25.97 245.64-25.97L245.64-25.97L245.64-25.97Q250.19-25.97 252.69-23.20L252.69-23.20L252.69-23.20Q255.19-20.43 255.19-15.09L255.19-15.09L255.19-15.09Q255.19-8.13 251.22-3.77L251.22-3.77L251.22-3.77Q246.96 0.98 239.22 0.98L239.22 0.98L239.22 0.98Q233.88 0.98 229.86-0.78L229.86-0.78L229.86-0.78Q228.44-1.42 227.41-2.35ZM239.85-17.15L237.26-2.79L237.26-2.79Q238.29-1.91 239.56-1.91L239.56-1.91L239.56-1.91Q240.83-1.91 241.57-2.40L241.57-2.40L241.57-2.40Q242.31-2.89 242.84-3.87L242.84-3.87L242.84-3.87Q244.31-6.52 245.49-14.60L245.49-14.60L245.49-14.60Q245.83-16.91 245.83-19.21L245.83-19.21L245.83-19.21Q245.83-21.51 245.32-22.25L245.32-22.25L245.32-22.25Q244.80-22.98 243.82-22.98L243.82-22.98L243.82-22.98Q240.83-22.98 239.85-17.15L239.85-17.15ZM268.81 0.98L268.81 0.98L268.81 0.98Q258.03 0.98 258.03-9.16L258.03-9.16L258.03-9.16Q258.03-16.37 262.00-21.02L262.00-21.02L262.00-21.02Q266.22-25.97 273.52-25.97L273.52-25.97L273.52-25.97Q278.81-25.97 281.50-23.52L281.50-23.52L281.50-23.52Q284.20-21.07 284.20-15.93L284.20-15.93L284.20-15.93Q284.20-8.09 279.99-3.53L279.99-3.53L279.99-3.53Q275.87 0.98 268.81 0.98ZM270.09-20.34L270.09-20.34L270.09-20.34Q269.50-19.01 269.03-17.03L269.03-17.03L269.03-17.03Q268.57-15.04 267.98-11.91L267.98-11.91L267.98-11.91Q267.39-8.77 267.39-4.90L267.39-4.90L267.39-4.90Q267.39-3.63 267.81-2.79L267.81-2.79L267.81-2.79Q268.23-1.96 269.35-1.96L269.35-1.96L269.35-1.96Q270.48-1.96 271.19-2.50L271.19-2.50L271.19-2.50Q271.90-3.04 272.44-4.31L272.44-4.31L272.44-4.31Q273.42-6.57 274.20-10.76L274.20-10.76L274.20-10.76Q274.99-14.95 275.06-16.76L275.06-16.76L275.06-16.76Q275.13-18.57 275.13-19.92L275.13-19.92L275.13-19.92Q275.13-21.27 274.74-22.15L274.74-22.15L274.74-22.15Q274.35-23.03 273.25-23.03L273.25-23.03L273.25-23.03Q272.15-23.03 271.41-22.34L271.41-22.34L271.41-22.34Q270.68-21.66 270.09-20.34ZM293.61 0.15L293.61 0.15L293.61 0.15Q292.04 0.98 289.88 0.98L289.88 0.98L289.88 0.98Q287.73 0.98 286.55-0.12L286.55-0.12L286.55-0.12Q285.38-1.23 285.38-3.36L285.38-3.36L285.38-3.36Q285.38-5.49 286.87-7.57L286.87-7.57L286.87-7.57Q288.37-9.65 290.59-10.83L290.59-10.83L290.59-10.83Q292.82-12.01 294.39-12.69L294.39-12.69L291.31-19.80L291.31-19.80Q290.47-21.61 288.90-21.61L288.90-21.61L288.51-21.56L288.37-21.56L288.37-21.56Q288.66-23.28 290.67-24.60L290.67-24.60L290.67-24.60Q292.68-25.97 294.98-25.97L294.98-25.97L294.98-25.97Q298.70-25.97 300.42-22.25L300.42-22.25L300.81-21.46L302.92-16.27L302.92-16.27Q304.24-16.86 304.80-17.96L304.80-17.96L304.80-17.96Q305.37-19.06 305.37-21.24L305.37-21.24L305.37-21.24Q305.37-23.42 304.19-24.79L304.19-24.79L304.19-24.79Q306.05-25.97 308.50-25.97L308.50-25.97L308.50-25.97Q312.91-25.97 312.91-21.71L312.91-21.71L312.91-21.71Q312.91-17.05 307.08-14.36L307.08-14.36L304.14-12.99L306.79-6.17L306.79-6.17Q307.57-4.12 308.99-3.23L308.99-3.23L308.99-3.23Q309.58-2.84 310.27-2.79L310.27-2.79L310.27-2.79Q308.80-0.39 305.61 0.69L305.61 0.69L305.61 0.69Q304.63 0.98 303.31 0.98L303.31 0.98L303.31 0.98Q301.99 0.98 300.47 0.07L300.47 0.07L300.47 0.07Q298.95-0.83 298.41-2.25L298.41-2.25L295.71-9.26L295.71-9.26Q292.97-8.04 292.97-3.58L292.97-3.58L292.97-3.58Q292.97-1.52 293.61 0.15Z" fill="#999569"></path></g></g><style>text {
  font-size: 64px;
  font-family: Arial Black;
  dominant-baseline: central;
  text-anchor: middle;
}</style></svg>
