<svg width="213.16590576171873px" height="55.345455169677734px" xmlns="http://www.w3.org/2000/svg" viewBox="143.41704711914065 47.32727241516113 213.16590576171873 55.345455169677734" style="background: rgba(0, 0, 0, 0);" preserveAspectRatio="xMidYMid"><defs><linearGradient id="editing-outline-gradient" x1="-0.41354545764260087" x2="1.4135454576426008" y1="0.09326335692419985" y2="0.9067366430758002"><stop offset="0" stop-color="#ee4208"></stop><stop offset="1" stop-color="#4139ff"></stop></linearGradient><filter id="editing-outline" x="-100%" y="-100%" width="300%" height="300%"><feMorphology in="SourceGraphic" operator="dilate" radius="1" result="outline"></feMorphology><feComposite operator="out" in="outline" in2="SourceAlpha"></feComposite></filter></defs><g filter="url(#editing-outline)"><g transform="translate(147.80373567342758, 86.99999713897705)"><path d="M3.26 0L-0.42 0L5.38-21.12L12.06-21.12L13.54-9.06L19.49-21.12L25.09-21.12L25.66-5.31L25.66-5.31Q25.79-2.18 27.33-1.22L27.33-1.22L27.33-1.22Q26.98-0.58 25.95 0.03L25.95 0.03L25.95 0.03Q24.93 0.64 23.57 0.64L23.57 0.64L23.57 0.64Q22.21 0.64 21.41 0.26L21.41 0.26L21.41 0.26Q20.61-0.13 20.16-0.77L20.16-0.77L20.16-0.77Q19.36-1.92 19.36-4.13L19.36-4.13L19.36-14.02L13.06 0L9.09 0L6.85-14.37L3.26 0ZM35.68 0.64L35.68 0.64L35.68 0.64Q28.64 0.64 28.64-5.98L28.64-5.98L28.64-5.98Q28.64-10.69 31.23-13.73L31.23-13.73L31.23-13.73Q33.98-16.96 38.75-16.96L38.75-16.96L38.75-16.96Q42.21-16.96 43.97-15.36L43.97-15.36L43.97-15.36Q45.73-13.76 45.73-10.40L45.73-10.40L45.73-10.40Q45.73-5.28 42.98-2.30L42.98-2.30L42.98-2.30Q40.29 0.64 35.68 0.64ZM36.51-13.28L36.51-13.28L36.51-13.28Q36.13-12.42 35.82-11.12L35.82-11.12L35.82-11.12Q35.52-9.82 35.14-7.78L35.14-7.78L35.14-7.78Q34.75-5.73 34.75-3.20L34.75-3.20L34.75-3.20Q34.75-2.37 35.02-1.82L35.02-1.82L35.02-1.82Q35.30-1.28 36.03-1.28L36.03-1.28L36.03-1.28Q36.77-1.28 37.23-1.63L37.23-1.63L37.23-1.63Q37.70-1.98 38.05-2.82L38.05-2.82L38.05-2.82Q38.69-4.29 39.20-7.02L39.20-7.02L39.20-7.02Q39.71-9.76 39.76-10.94L39.76-10.94L39.76-10.94Q39.81-12.13 39.81-13.01L39.81-13.01L39.81-13.01Q39.81-13.89 39.55-14.46L39.55-14.46L39.55-14.46Q39.30-15.04 38.58-15.04L38.58-15.04L38.58-15.04Q37.86-15.04 37.38-14.59L37.38-14.59L37.38-14.59Q36.90-14.14 36.51-13.28ZM59.23-15.78L59.23-15.78L59.23-15.78Q60.29-16.96 62.11-16.96L62.11-16.96L62.11-16.96Q63.23-16.96 64.10-16.35L64.10-16.35L64.10-16.35Q64.96-15.74 64.96-14.61L64.96-14.61L64.96-14.61Q64.96-13.47 64.61-12.26L64.61-12.26L64.61-12.26Q64.26-11.04 63.71-9.79L63.71-9.79L63.71-9.79Q62.62-7.36 61.12-5.34L61.12-5.34L61.12-5.34Q59.01-2.43 56.98-0.90L56.98-0.90L56.98-0.90Q54.94 0.64 52.74 0.64L52.74 0.64L52.74 0.64Q50.94 0.64 49.86 0.22L49.86 0.22L49.86 0.22Q49.66-6.50 49.42-8.90L49.42-8.90L49.42-8.90Q49.18-11.30 48.99-12.61L48.99-12.61L48.99-12.61Q48.67-15.17 47.71-15.78L47.71-15.78L47.71-15.78Q48.45-16.42 49.17-16.69L49.17-16.69L49.17-16.69Q49.89-16.96 51.38-16.96L51.38-16.96L51.38-16.96Q52.86-16.96 53.92-15.79L53.92-15.79L53.92-15.79Q54.98-14.62 55.18-12.56L55.18-12.56L55.18-12.56Q55.39-10.50 55.39-8L55.39-8L55.39-8Q55.39-5.50 55.20-2.50L55.20-2.50L55.20-2.50Q56.19-3.20 57.25-5.34L57.25-5.34L57.25-5.34Q58.69-8.32 59.20-11.90L59.20-11.90L59.20-11.90Q59.36-12.99 59.36-14.14L59.36-14.14L59.36-14.14Q59.36-15.30 59.23-15.78ZM73.50-1.76L73.50-1.76L73.50-1.76Q72.51 0.64 69.34 0.64L69.34 0.64L69.34 0.64Q67.71 0.64 66.69-0.48L66.69-0.48L66.69-0.48Q65.82-1.47 65.82-2.46L65.82-2.46L65.82-2.46Q65.82-5.06 67.01-10.11L67.01-10.11L68.19-16.32L74.69-16.96L72.74-6.85L72.74-6.85Q72.19-4.48 72.19-3.65L72.19-3.65L72.19-3.65Q72.19-1.82 73.50-1.76ZM68.77-20.77L68.77-20.77L68.77-20.77Q68.77-22.02 69.81-22.69L69.81-22.69L69.81-22.69Q70.85-23.36 72.35-23.36L72.35-23.36L72.35-23.36Q73.86-23.36 74.77-22.69L74.77-22.69L74.77-22.69Q75.68-22.02 75.68-20.77L75.68-20.77L75.68-20.77Q75.68-19.52 74.67-18.88L74.67-18.88L74.67-18.88Q73.66-18.24 72.16-18.24L72.16-18.24L72.16-18.24Q70.66-18.24 69.71-18.88L69.71-18.88L69.71-18.88Q68.77-19.52 68.77-20.77ZM89.18-5.41L89.18-5.41L89.18-5.41Q89.98-4.86 89.98-3.66L89.98-3.66L89.98-3.66Q89.98-2.46 89.38-1.70L89.38-1.70L89.38-1.70Q88.77-0.93 87.78-0.42L87.78-0.42L87.78-0.42Q85.73 0.64 83.52 0.64L83.52 0.64L83.52 0.64Q81.31 0.64 80.02 0.16L80.02 0.16L80.02 0.16Q78.72-0.32 77.86-1.22L77.86-1.22L77.86-1.22Q76.16-2.91 76.16-6.02L76.16-6.02L76.16-6.02Q76.16-10.85 78.78-13.79L78.78-13.79L78.78-13.79Q81.60-16.96 86.50-16.96L86.50-16.96L86.50-16.96Q89.54-16.96 91.04-15.68L91.04-15.68L91.04-15.68Q92.16-14.72 92.16-13.15L92.16-13.15L92.16-13.15Q92.16-7.52 82.43-7.52L82.43-7.52L82.43-7.52Q82.30-6.69 82.30-5.98L82.30-5.98L82.30-5.98Q82.30-4.51 82.96-3.95L82.96-3.95L82.96-3.95Q83.62-3.39 84.83-3.39L84.83-3.39L84.83-3.39Q86.05-3.39 87.34-3.95L87.34-3.95L87.34-3.95Q88.64-4.51 89.18-5.41ZM82.66-8.90L82.66-8.90L82.66-8.90Q84.93-8.90 86.24-10.30L86.24-10.30L86.24-10.30Q87.55-11.65 87.55-13.79L87.55-13.79L87.55-13.79Q87.55-14.53 87.28-14.93L87.28-14.93L87.28-14.93Q87.01-15.33 86.46-15.33L86.46-15.33L86.46-15.33Q85.92-15.33 85.46-15.12L85.46-15.12L85.46-15.12Q84.99-14.91 84.51-14.21L84.51-14.21L84.51-14.21Q83.33-12.61 82.66-8.90ZM102.82-11.23L102.82-11.23L102.82-11.23Q103.26-12.42 103.26-13.44L103.26-13.44L103.26-13.44Q103.26-15.33 101.73-15.33L101.73-15.33L101.73-15.33Q100.93-15.33 100.27-14.61L100.27-14.61L100.27-14.61Q99.62-13.89 99.62-12.99L99.62-12.99L99.62-12.99Q99.62-12.35 100.13-11.84L100.13-11.84L100.13-11.84Q100.86-11.14 102.75-9.98L102.75-9.98L102.75-9.98Q104.64-8.83 105.36-7.89L105.36-7.89L105.36-7.89Q106.08-6.94 106.08-5.65L106.08-5.65L106.08-5.65Q106.08-4.35 105.46-3.17L105.46-3.17L105.46-3.17Q104.83-1.98 103.71-1.15L103.71-1.15L103.71-1.15Q101.31 0.64 97.47 0.64L97.47 0.64L97.47 0.64Q95.39 0.64 93.79-0.45L93.79-0.45L93.79-0.45Q92.19-1.50 92.19-2.75L92.19-2.75L92.19-2.75Q92.19-4 93.10-4.74L93.10-4.74L93.10-4.74Q94.02-5.47 95.36-5.47L95.36-5.47L95.36-5.47Q96.70-5.47 97.54-4.96L97.54-4.96L97.54-4.96Q97.12-3.90 97.12-3.20L97.12-3.20L97.12-3.20Q97.12-1.09 98.91-1.09L98.91-1.09L98.91-1.09Q99.68-1.09 100.19-1.57L100.19-1.57L100.19-1.57Q100.70-2.05 100.70-2.88L100.70-2.88L100.70-2.88Q100.70-4.51 97.95-6.24L97.95-6.24L97.95-6.24Q95.71-7.71 95.20-8.29L95.20-8.29L95.20-8.29Q94.34-9.31 94.34-10.59L94.34-10.59L94.34-10.59Q94.34-11.87 94.94-13.09L94.94-13.09L94.94-13.09Q95.55-14.30 96.67-15.17L96.67-15.17L96.67-15.17Q99.01-16.96 103.07-16.96L103.07-16.96L103.07-16.96Q105.15-16.96 106.38-16.13L106.38-16.13L106.38-16.13Q107.62-15.30 107.62-13.89L107.62-13.89L107.62-13.89Q107.62-12.48 106.77-11.68L106.77-11.68L106.77-11.68Q105.92-10.88 104.38-10.88L104.38-10.88L104.38-10.88Q103.33-10.88 102.82-11.23ZM124.90-3.55L124.90-3.55L124.90-3.55Q124.90-2.14 126.34-1.73L126.34-1.73L126.34-1.73Q125.98-0.54 124.61 0.10L124.61 0.10L124.61 0.10Q123.46 0.64 122.19 0.64L122.19 0.64L122.19 0.64Q120.93 0.64 120.27 0.30L120.27 0.30L120.27 0.30Q119.62-0.03 119.26-0.58L119.26-0.58L119.26-0.58Q118.69-1.41 118.69-2.98L118.69-2.98L118.69-2.98Q118.69-3.90 119.20-6.46L119.20-6.46L119.65-8.90L119.65-8.90Q120.19-11.68 120.19-12.70L120.19-12.70L120.19-12.70Q120.19-14.50 119.20-14.50L119.20-14.50L119.20-14.50Q117.95-14.50 117.15-12.67L117.15-12.67L117.15-12.67Q116.83-11.97 116.61-10.91L116.61-10.91L114.43 0L108 0.64L112.51-22.40L118.94-23.04L118.69-21.76L118.69-21.76Q117.79-16.83 117.02-15.17L117.02-15.17L117.02-15.17Q118.82-16.96 122.11-16.96L122.11-16.96L122.11-16.96Q125.60-16.96 126.24-14.66L126.24-14.66L126.24-14.66Q126.46-13.92 126.46-13.28L126.46-13.28L126.46-13.28Q126.46-12.64 126.42-12.14L126.42-12.14L126.42-12.14Q126.37-11.65 126.21-10.75L126.21-10.75L125.79-8.45L125.06-4.83L125.06-4.83Q124.90-4.10 124.90-3.55ZM139.01-16.96L139.01-16.96L139.01-16.96Q140.16-16.96 141.06-16.70L141.06-16.70L141.06-16.70Q141.09-16.83 141.15-17.18L141.15-17.18L141.31-18.18L141.31-18.18Q141.44-18.82 141.63-19.87L141.63-19.87L142.14-22.40L148.51-23.04L144.96-4.48L144.96-4.48Q144.93-4.29 144.93-3.97L144.93-3.97L144.93-3.46L144.93-3.46Q144.93-2.75 145.28-2.22L145.28-2.22L145.28-2.22Q145.63-1.70 146.21-1.70L146.21-1.70L146.21-1.70Q145.57-0.19 143.62 0.45L143.62 0.45L143.62 0.45Q142.94 0.64 142 0.64L142 0.64L142 0.64Q141.06 0.64 140.19 0.14L140.19 0.14L140.19 0.14Q139.33-0.35 139.07-1.18L139.07-1.18L139.07-1.18Q138.56-0.35 137.54 0.14L137.54 0.14L137.54 0.14Q136.51 0.64 135.02 0.64L135.02 0.64L135.02 0.64Q133.54 0.64 132.30 0.26L132.30 0.26L132.30 0.26Q131.07-0.13 130.30-0.96L130.30-0.96L130.30-0.96Q128.90-2.59 128.90-6.30L128.90-6.30L128.90-6.30Q128.90-11.10 131.71-14.02L131.71-14.02L131.71-14.02Q134.53-16.96 139.01-16.96ZM138.78-15.04L138.78-15.04L138.78-15.04Q137.60-15.04 136.96-13.76L136.96-13.76L136.96-13.76Q136.32-12.48 135.66-9.31L135.66-9.31L135.66-9.31Q135.01-6.14 135.01-3.30L135.01-3.30L135.01-3.30Q135.01-1.34 136.16-1.34L136.16-1.34L136.16-1.34Q137.18-1.34 137.90-2.37L137.90-2.37L137.90-2.37Q138.62-3.39 138.91-5.09L138.91-5.09L140.64-14.46L140.64-14.46Q139.97-15.04 138.78-15.04ZM148.51-1.54L148.51-1.54L152.48-22.40L158.98-23.04L157.98-18.14L157.98-18.14Q157.63-16.64 157.18-15.58L157.18-15.58L157.18-15.58Q157.89-16.48 159.42-16.83L159.42-16.83L159.42-16.83Q159.87-16.96 160.42-16.96L160.42-16.96L160.42-16.96Q163.39-16.96 165.02-15.15L165.02-15.15L165.02-15.15Q166.66-13.34 166.66-9.86L166.66-9.86L166.66-9.86Q166.66-5.31 164.06-2.46L164.06-2.46L164.06-2.46Q161.28 0.64 156.22 0.64L156.22 0.64L156.22 0.64Q152.74 0.64 150.11-0.51L150.11-0.51L150.11-0.51Q149.18-0.93 148.51-1.54ZM156.64-11.20L154.94-1.82L154.94-1.82Q155.62-1.25 156.45-1.25L156.45-1.25L156.45-1.25Q157.28-1.25 157.76-1.57L157.76-1.57L157.76-1.57Q158.24-1.89 158.59-2.53L158.59-2.53L158.59-2.53Q159.55-4.26 160.32-9.54L160.32-9.54L160.32-9.54Q160.54-11.04 160.54-12.54L160.54-12.54L160.54-12.54Q160.54-14.05 160.21-14.53L160.21-14.53L160.21-14.53Q159.87-15.01 159.23-15.01L159.23-15.01L159.23-15.01Q157.28-15.01 156.64-11.20L156.64-11.20ZM175.55 0.64L175.55 0.64L175.55 0.64Q168.51 0.64 168.51-5.98L168.51-5.98L168.51-5.98Q168.51-10.69 171.10-13.73L171.10-13.73L171.10-13.73Q173.86-16.96 178.62-16.96L178.62-16.96L178.62-16.96Q182.08-16.96 183.84-15.36L183.84-15.36L183.84-15.36Q185.60-13.76 185.60-10.40L185.60-10.40L185.60-10.40Q185.60-5.28 182.85-2.30L182.85-2.30L182.85-2.30Q180.16 0.64 175.55 0.64ZM176.38-13.28L176.38-13.28L176.38-13.28Q176-12.42 175.70-11.12L175.70-11.12L175.70-11.12Q175.39-9.82 175.01-7.78L175.01-7.78L175.01-7.78Q174.62-5.73 174.62-3.20L174.62-3.20L174.62-3.20Q174.62-2.37 174.90-1.82L174.90-1.82L174.90-1.82Q175.17-1.28 175.90-1.28L175.90-1.28L175.90-1.28Q176.64-1.28 177.10-1.63L177.10-1.63L177.10-1.63Q177.57-1.98 177.92-2.82L177.92-2.82L177.92-2.82Q178.56-4.29 179.07-7.02L179.07-7.02L179.07-7.02Q179.58-9.76 179.63-10.94L179.63-10.94L179.63-10.94Q179.68-12.13 179.68-13.01L179.68-13.01L179.68-13.01Q179.68-13.89 179.42-14.46L179.42-14.46L179.42-14.46Q179.17-15.04 178.45-15.04L178.45-15.04L178.45-15.04Q177.73-15.04 177.25-14.59L177.25-14.59L177.25-14.59Q176.77-14.14 176.38-13.28ZM191.74 0.10L191.74 0.10L191.74 0.10Q190.72 0.64 189.31 0.64L189.31 0.64L189.31 0.64Q187.90 0.64 187.14-0.08L187.14-0.08L187.14-0.08Q186.37-0.80 186.37-2.19L186.37-2.19L186.37-2.19Q186.37-3.58 187.34-4.94L187.34-4.94L187.34-4.94Q188.32-6.30 189.78-7.07L189.78-7.07L189.78-7.07Q191.23-7.84 192.26-8.29L192.26-8.29L190.24-12.93L190.24-12.93Q189.70-14.11 188.67-14.11L188.67-14.11L188.42-14.08L188.32-14.08L188.32-14.08Q188.51-15.20 189.82-16.06L189.82-16.06L189.82-16.06Q191.14-16.96 192.64-16.96L192.64-16.96L192.64-16.96Q195.07-16.96 196.19-14.53L196.19-14.53L196.45-14.02L197.82-10.62L197.82-10.62Q198.69-11.01 199.06-11.73L199.06-11.73L199.06-11.73Q199.42-12.45 199.42-13.87L199.42-13.87L199.42-13.87Q199.42-15.30 198.66-16.19L198.66-16.19L198.66-16.19Q199.87-16.96 201.47-16.96L201.47-16.96L201.47-16.96Q204.35-16.96 204.35-14.18L204.35-14.18L204.35-14.18Q204.35-11.14 200.54-9.38L200.54-9.38L198.62-8.48L200.35-4.03L200.35-4.03Q200.86-2.69 201.79-2.11L201.79-2.11L201.79-2.11Q202.18-1.86 202.62-1.82L202.62-1.82L202.62-1.82Q201.66-0.26 199.58 0.45L199.58 0.45L199.58 0.45Q198.94 0.64 198.08 0.64L198.08 0.64L198.08 0.64Q197.22 0.64 196.22 0.05L196.22 0.05L196.22 0.05Q195.23-0.54 194.88-1.47L194.88-1.47L193.12-6.05L193.12-6.05Q191.33-5.25 191.33-2.34L191.33-2.34L191.33-2.34Q191.33-0.99 191.74 0.10Z" fill="url(#editing-outline-gradient)"></path></g></g><style>text {
  font-size: 64px;
  font-family: Arial Black;
  dominant-baseline: central;
  text-anchor: middle;
}</style></svg>
