<?xml version="1.0" encoding="UTF-8"?>
<svg version="1.1" xmlns="http://www.w3.org/2000/svg" width="345" height="48">
<path d="M0 0 C9.24 0 18.48 0 28 0 C28.495 1.98 28.495 1.98 29 4 C29.99 3.34 30.98 2.68 32 2 C36.88516144 1.28792562 40.8100735 1.27147357 45.0625 3.875 C47.66489896 6.72924402 48.13883941 8.23568033 48.125 12 C48.12886719 13.051875 48.12886719 13.051875 48.1328125 14.125 C48 16 48 16 47 18 C46.34 18 45.68 18 45 18 C45 18.66 45 19.32 45 20 C44.34 20.66 43.68 21.32 43 22 C43 22.66 43 23.32 43 24 C44.65 23.67 46.3 23.34 48 23 C48.87890625 29.15234375 48.87890625 29.15234375 49 31 C48.505 31.495 48.505 31.495 48 32 C46.35 32 44.7 32 43 32 C43 35.96 43 39.92 43 44 C39.09096111 45.95451944 37.64820971 46.25584996 33.46484375 46.265625 C32.40845703 46.26820312 31.35207031 46.27078125 30.26367188 46.2734375 C29.16603516 46.26570313 28.06839844 46.25796875 26.9375 46.25 C25.83599609 46.25773437 24.73449219 46.26546875 23.59960938 46.2734375 C22.54451172 46.27085938 21.48941406 46.26828125 20.40234375 46.265625 C19.43804443 46.26336914 18.47374512 46.26111328 17.48022461 46.25878906 C15 46 15 46 12 44 C12 42.68 12 41.36 12 40 C9.62766389 40.03780298 9.62766389 40.03780298 7 41 C6.401875 42.010625 5.80375 43.02125 5.1875 44.0625 C3 47 3 47 1.0078125 47.4296875 C-1.1875 47.4375 -1.1875 47.4375 -5 47 C-7.49822597 44.50177403 -6.53531108 38.05797718 -6.6875 34.6875 C-6.74744141 33.62853516 -6.80738281 32.56957031 -6.86914062 31.47851562 C-6.91619141 30.45822266 -6.96324219 29.43792969 -7.01171875 28.38671875 C-7.05772217 27.45045654 -7.10372559 26.51419434 -7.15112305 25.54956055 C-6.99123838 22.85218481 -6.37944619 21.2961561 -5 19 C0.28449967 18.47155003 0.28449967 18.47155003 3 19 C5.1875 21.9375 5.1875 21.9375 7 25 C9.62766389 25.96219702 9.62766389 25.96219702 12 26 C12 24.68 12 23.36 12 22 C11.113125 21.9175 10.22625 21.835 9.3125 21.75 C5.00022799 20.77363653 2.25768132 18.98879018 -0.12890625 15.21484375 C-1.20428736 12.48057878 -1.23095376 10.30615394 -1.1875 7.375 C-1.18105469 6.41335937 -1.17460938 5.45171875 -1.16796875 4.4609375 C-1 2 -1 2 0 0 Z " fill="#4B4A4A" transform="translate(9,0)"/>
<path d="M0 0 C2.64 0 5.28 0 8 0 C9.50548369 3.78951244 11.00345314 7.58195031 12.5 11.375 C12.92925781 12.45523437 13.35851562 13.53546875 13.80078125 14.6484375 C14.20683594 15.6796875 14.61289063 16.7109375 15.03125 17.7734375 C15.40830078 18.72653809 15.78535156 19.67963867 16.17382812 20.66162109 C17 23 17 23 17 25 C17.66 25 18.32 25 19 25 C19.14695312 24.45214844 19.29390625 23.90429688 19.4453125 23.33984375 C21.71447938 15.31951252 24.82944737 7.6955161 28 0 C30.31 0 32.62 0 35 0 C35 11.22 35 22.44 35 34 C33.35 34 31.7 34 30 34 C29.505 24.1 29.505 24.1 29 14 C28.43410156 15.35996094 27.86820313 16.71992188 27.28515625 18.12109375 C26.54439985 19.8932831 25.80350742 21.66541559 25.0625 23.4375 C24.68931641 24.33533203 24.31613281 25.23316406 23.93164062 26.15820312 C23.57392578 27.01220703 23.21621094 27.86621094 22.84765625 28.74609375 C22.51773682 29.53685303 22.18781738 30.3276123 21.84790039 31.14233398 C21 33 21 33 20 34 C18.35 34 16.7 34 15 34 C12.36 27.4 9.72 20.8 7 14 C6.67 20.6 6.34 27.2 6 34 C4.02 34 2.04 34 0 34 C0 22.78 0 11.56 0 0 Z " fill="#2D9E51" transform="translate(63,2)"/>
<path d="M0 0 C1.98 0 3.96 0 6 0 C6 3.63 6 7.26 6 11 C6.66 10.67 7.32 10.34 8 10 C12.28330893 9.49559489 15.81670839 9.18079812 19.4375 11.6875 C22.72837641 16.55799709 23.90501188 21.11742281 23 27 C20.30508475 34.34745763 20.30508475 34.34745763 17 36 C15.52234834 36.07009733 14.04165186 36.08435939 12.5625 36.0625 C11.38880859 36.04896484 11.38880859 36.04896484 10.19140625 36.03515625 C9.46824219 36.02355469 8.74507813 36.01195312 8 36 C7.01 36 6.02 36 5 36 C3.35 36 1.7 36 0 36 C0 24.12 0 12.24 0 0 Z M7.27734375 15.125 C5.46768489 17.78137997 5.56640764 19.81136629 5.5625 23 C5.54316406 24.051875 5.52382813 25.10375 5.50390625 26.1875 C5.74187583 29.09645226 5.74187583 29.09645226 7.86328125 30.8828125 C9.98673857 32.22205587 9.98673857 32.22205587 12.625 31.875 C15.32987773 31.1432514 15.32987773 31.1432514 17 28 C17.66413417 23.37422825 17.88335514 19.32503272 15.25 15.375 C12.38685842 13.62530237 10.19939254 13.21672324 7.27734375 15.125 Z " fill="#2E9E50" transform="translate(270,0)"/>
<path d="M0 0 C1.98 0 3.96 0 6 0 C6 11.88 6 23.76 6 36 C3.66666667 36 1.33333333 36 -1 36 C-2.09248047 36.10441406 -2.09248047 36.10441406 -3.20703125 36.2109375 C-10.09163159 36.64445056 -10.09163159 36.64445056 -12.734375 34.76953125 C-16.36061731 30.45003673 -17.29417003 26.62014244 -17.22265625 21.0625 C-16.80851075 17.22620483 -15.03936947 14.34357517 -12.71875 11.34375 C-10.35418092 9.4950869 -8.77275612 9.69716535 -5.8125 9.8125 C-3.4303125 9.9053125 -3.4303125 9.9053125 -1 10 C-0.67 6.7 -0.34 3.4 0 0 Z M-9.25 15.375 C-11.93422603 19.40133904 -11.77111973 23.3031798 -11 28 C-9.5368109 30.8017483 -9.5368109 30.8017483 -7 32 C-3.60845705 31.83849795 -2.41703243 31.41703243 0 29 C0.35827142 26.20654922 0.35827142 26.20654922 0.3125 23.0625 C0.32925781 22.00160156 0.34601563 20.94070312 0.36328125 19.84765625 C0.22004098 17.02154863 0.22004098 17.02154863 -1.26953125 15.12109375 C-4.19859941 13.22348075 -6.38401658 13.62356569 -9.25 15.375 Z " fill="#2E9E51" transform="translate(259,0)"/>
<path d="M0 0 C5.27759634 -0.52775963 5.27759634 -0.52775963 8 0 C10.3125 2.9375 10.3125 2.9375 12 6 C12.99 6.33 13.98 6.66 15 7 C15.10832169 9.08218362 15.18573541 11.16599129 15.25 13.25 C15.29640625 14.41015625 15.3428125 15.5703125 15.390625 16.765625 C14.92409026 20.62853262 13.9228235 21.56431375 11 24 C10.5875 24.7425 10.175 25.485 9.75 26.25 C7.60179122 28.39820878 6.83425684 28.27564093 3.875 28.3125 C0 28 0 28 -1 27 C-1.41202092 23.24343849 -1.51707741 19.46179224 -1.6875 15.6875 C-1.74744141 14.62853516 -1.80738281 13.56957031 -1.86914062 12.47851562 C-1.91619141 11.45822266 -1.96324219 10.43792969 -2.01171875 9.38671875 C-2.05772217 8.45045654 -2.10372559 7.51419434 -2.15112305 6.54956055 C-1.99123838 3.85218481 -1.37944619 2.2961561 0 0 Z " fill="#555555" transform="translate(4,19)"/>
<path d="M0 0 C1.65 0 3.3 0 5 0 C5.33 3.63 5.66 7.26 6 11 C6.33 10.67 6.66 10.34 7 10 C9.1796875 9.796875 9.1796875 9.796875 11.875 9.75 C12.75929687 9.72421875 13.64359375 9.6984375 14.5546875 9.671875 C17 10 17 10 18.7578125 11.328125 C20.99786415 14.34303729 21.1207023 17.04973943 21.09765625 20.66796875 C21.09443359 21.56064453 21.09121094 22.45332031 21.08789062 23.37304688 C21.07951172 24.30181641 21.07113281 25.23058594 21.0625 26.1875 C21.05798828 27.12787109 21.05347656 28.06824219 21.04882812 29.03710938 C21.03704626 31.35813712 21.02059558 33.67903644 21 36 C19.02 36 17.04 36 15 36 C14.67 29.4 14.34 22.8 14 16 C9.361186 14.46274824 9.361186 14.46274824 7.21948242 16.1730957 C5.76696119 18.349115 5.58053225 19.62899054 5.48828125 22.23046875 C5.45283203 23.03291016 5.41738281 23.83535156 5.38085938 24.66210938 C5.34702148 25.91217773 5.34702148 25.91217773 5.3125 27.1875 C5.27833984 28.03248047 5.24417969 28.87746094 5.20898438 29.74804688 C5.12658529 31.83156649 5.06161355 33.91576216 5 36 C3.35 36 1.7 36 0 36 C0 24.12 0 12.24 0 0 Z " fill="#2F9E50" transform="translate(217,0)"/>
<path d="M0 0 C3.0625 1.9375 3.0625 1.9375 5 5 C5.67636879 8.0641556 5.85853821 10.84068676 6 14 C0.39 14 -5.22 14 -11 14 C-10.01 15.98 -9.02 17.96 -8 20 C-5.05270463 21.15811388 -5.05270463 21.15811388 -2 21 C-1.01 20.34 -0.02 19.68 1 19 C3.1875 19.375 3.1875 19.375 5 20 C5 20.99 5 21.98 5 23 C2.03254641 25.96745359 -0.31667622 26.43178457 -4.4375 26.4375 C-7.87929979 26.31359521 -9.88948489 26.04961903 -13.0625 24.625 C-15.98009977 20.67212289 -16.84288598 16.88481781 -17 12 C-16.31007054 7.75628295 -15.35333386 4.28902858 -12.19140625 1.27734375 C-8.3006273 -0.99054345 -4.35269738 -0.72544956 0 0 Z M-9.375 5.8125 C-11.19877467 7.81340984 -11.19877467 7.81340984 -11 10 C-7.37 10 -3.74 10 0 10 C-0.33 8.35 -0.66 6.7 -1 5 C-5.46555153 3.695104 -5.46555153 3.695104 -9.375 5.8125 Z " fill="#2E9D50" transform="translate(182,10)"/>
<path d="M0 0 C2.89683868 2.2015974 4.39297231 3.78594462 6 7 C6.14851844 8.93359586 6.22130833 10.87342097 6.25 12.8125 C6.27578125 13.85019531 6.3015625 14.88789063 6.328125 15.95703125 C5.95408344 19.42582145 5.07568054 21.22110993 3 24 C-1.45849958 26.97233305 -5.77433867 26.74215102 -11 26 C-15.22502407 23.06835064 -17.01578521 20.01949543 -18 15 C-18.09161865 9.28528701 -16.63511779 5.51635847 -13 1 C-9.04603037 -0.97698481 -4.29880647 -0.57069292 0 0 Z M-10.25 6 C-12.48417115 9.83000769 -12.86523237 12.66509844 -12 17 C-10.49658542 20.06885514 -10.49658542 20.06885514 -8 22 C-5.5 22.83333333 -5.5 22.83333333 -3 22 C-0.57188288 19.90000681 0.73070929 18.23674251 1.421875 15.0625 C1.70102654 10.96827749 1.28072385 9.37429846 -1.25 6 C-4.84800731 3.38326741 -6.8221929 2.95306036 -10.25 6 Z " fill="#2F9D51" transform="translate(121,10)"/>
<path d="M0 0 C3.61984803 1.89334737 5.68828756 4.06486269 7 8 C7.49959797 13.6685154 7.75880171 18.40590902 4 23 C3.58105469 23.52851562 3.16210938 24.05703125 2.73046875 24.6015625 C-0.29623935 27.04752525 -3.59381185 26.46020296 -7.33203125 26.3515625 C-10.96326248 25.87306937 -12.65649825 24.79708273 -15 22 C-17.37634512 17.92626551 -17.58813824 13.61462314 -17 9 C-13.8079911 0.54117641 -8.61538575 -1.47886149 0 0 Z M-9.25 5.375 C-11.93676839 9.40515259 -11.76394918 13.29937391 -11 18 C-9.59912251 20.8213337 -9.59912251 20.8213337 -7 22 C-3.89706707 22.24677006 -3.89706707 22.24677006 -1 21 C1.25844168 18.66870536 1.95719407 17.01664075 2.09375 13.7734375 C1.85458229 10.1022132 1.65633016 7.74685845 -0.8125 4.9375 C-4.06062105 3.54544812 -6.22698047 3.52759917 -9.25 5.375 Z " fill="#2E9E50" transform="translate(313,10)"/>
<path d="M0 0 C3.1875 2.3125 3.1875 2.3125 5 5 C5 5.99 5 6.98 5 8 C2.125 8.1875 2.125 8.1875 -1 8 C-1.66 7.01 -2.32 6.02 -3 5 C-4.98 5.33 -6.96 5.66 -9 6 C-8.67 6.99 -8.34 7.98 -8 9 C-5.51069807 10.17779035 -5.51069807 10.17779035 -2.5625 11.0625 C2.80501931 12.80501931 2.80501931 12.80501931 5 15 C5.52140959 19.02230253 5.64520699 21.13230784 3.1875 24.4375 C-1.52491847 26.74750905 -5.85185727 26.90304753 -11 26 C-14.1875 23.75 -14.1875 23.75 -16 21 C-16 19.68 -16 18.36 -16 17 C-13.75 16.75 -13.75 16.75 -11 17 C-10.360625 17.680625 -9.72125 18.36125 -9.0625 19.0625 C-8.381875 19.701875 -7.70125 20.34125 -7 21 C-3.80045046 20.85650653 -3.80045046 20.85650653 -1 20 C-1.33 19.01 -1.66 18.02 -2 17 C-4.49177324 15.85949953 -4.49177324 15.85949953 -7.4375 15 C-12.78143877 13.32784185 -12.78143877 13.32784185 -15 10 C-15.43782812 6.57034638 -15.36893573 4.66759799 -13.6875 1.625 C-9.34153974 -1.00278993 -4.93177436 -0.86087186 0 0 Z " fill="#2E9E50" transform="translate(207,10)"/>
<path d="M0 0 C2.31 0 4.62 0 7 0 C7.99 1.98 8.98 3.96 10 6 C10.66 6 11.32 6 12 6 C12.86625 4.515 12.86625 4.515 13.75 3 C14.4925 2.01 15.235 1.02 16 0 C19.25 -0.375 19.25 -0.375 22 0 C20.35821735 4.77609498 17.73453298 8.79382904 15 13 C15.75796875 14.15628906 15.75796875 14.15628906 16.53125 15.3359375 C17.1809375 16.33882812 17.830625 17.34171875 18.5 18.375 C19.1496875 19.37273438 19.799375 20.37046875 20.46875 21.3984375 C22 24 22 24 22 26 C19.3125 26.4375 19.3125 26.4375 16 26 C13.95224699 23.88875077 12.46519774 21.54140493 11 19 C10.70867187 19.5053125 10.41734375 20.010625 10.1171875 20.53125 C8.8529028 22.53502197 7.65140918 24.29738433 6 26 C2.6875 26.4375 2.6875 26.4375 0 26 C1.11973556 22.64079333 2.55751314 20.23015393 4.75 17.5 C6.7872277 14.86001722 6.7872277 14.86001722 6.625 11.625 C6.08875 10.75875 5.5525 9.8925 5 9 C4.12158281 7.39770198 3.24683877 5.79338694 2.375 4.1875 C1.58621838 2.79003431 0.79550392 1.39365 0 0 Z " fill="#2D9E50" transform="translate(322,10)"/>
<path d="M0 0 C1.98 0 3.96 0 6 0 C7.65 4.95 9.3 9.9 11 15 C12.62586597 11.74826806 13.90715399 8.65996881 15.125 5.25 C15.47820312 4.26515625 15.83140625 3.2803125 16.1953125 2.265625 C16.46085937 1.51796875 16.72640625 0.7703125 17 0 C18.98 0 20.96 0 23 0 C20.03 8.58 17.06 17.16 14 26 C12.35 26 10.7 26 9 26 C7.4946891 22.04366575 5.99665407 18.08461633 4.5 14.125 C4.07074219 12.99707031 3.64148438 11.86914062 3.19921875 10.70703125 C2.79316406 9.63066406 2.38710937 8.55429687 1.96875 7.4453125 C1.59169922 6.45031738 1.21464844 5.45532227 0.82617188 4.43017578 C0 2 0 2 0 0 Z " fill="#2E9E50" transform="translate(129,10)"/>
<path d="M0 0 C1.051875 0.0103125 2.10375 0.020625 3.1875 0.03125 C4.7653125 0.01578125 4.7653125 0.01578125 6.375 0 C9.1875 0.53125 9.1875 0.53125 11.03125 2.34765625 C12.7686909 5.62883686 12.70002067 7.87954019 12.1875 11.53125 C10.19966563 14.45088173 8.7560303 16.14227978 5.25 17.01171875 C1.28734094 17.28940509 -0.47661401 16.76217162 -3.8125 14.46875 C-6.31010663 10.80039026 -6.4463947 8.88927608 -5.8125 4.53125 C-4.18918732 1.46560208 -3.46109561 0.6537625 0 0 Z " fill="#4E4D4D" transform="translate(19.8125,-0.53125)"/>
<path d="M0 0 C1.98 0 3.96 0 6 0 C6 8.58 6 17.16 6 26 C4.02 26 2.04 26 0 26 C0 17.42 0 8.84 0 0 Z " fill="#32994E" transform="translate(155,10)"/>
<path d="M0 0 C0.99 0 1.98 0 3 0 C3.268125 0.639375 3.53625 1.27875 3.8125 1.9375 C4.88667752 4.33131686 4.88667752 4.33131686 8 5 C8.10832169 7.08218362 8.18573541 9.16599129 8.25 11.25 C8.29640625 12.41015625 8.3428125 13.5703125 8.390625 14.765625 C7.91680553 18.68885024 7.00159915 19.54414615 4 22 C2.68 23.32 1.36 24.64 0 26 C0 17.42 0 8.84 0 0 Z " fill="#555454" transform="translate(11,21)"/>
<path d="M0 0 C7.26 0 14.52 0 22 0 C22 2.31 22 4.62 22 7 C16.06 7 10.12 7 4 7 C3.67 6.01 3.34 5.02 3 4 C2.01 4 1.02 4 0 4 C0 2.68 0 1.36 0 0 Z " fill="#4B4A4A" transform="translate(24,32)"/>
<path d="M0 0 C7.26 0 14.52 0 22 0 C22 2.31 22 4.62 22 7 C16.06 7 10.12 7 4 7 C3.67 6.01 3.34 5.02 3 4 C2.01 4 1.02 4 0 4 C0 2.68 0 1.36 0 0 Z M6 1 C5.67 2.65 5.34 4.3 5 6 C9.95 6 14.9 6 20 6 C20.33 4.68 20.66 3.36 21 2 C19.86298403 0.63467451 19.86298403 0.63467451 16.83984375 0.90234375 C15.55207031 0.91394531 14.26429687 0.92554688 12.9375 0.9375 C11.64714844 0.94652344 10.35679688 0.95554688 9.02734375 0.96484375 C8.02832031 0.97644531 7.02929688 0.98804688 6 1 Z " fill="#413839" transform="translate(24,32)"/>
<path d="M0 0 C1.32 0.33 2.64 0.66 4 1 C3.01 1.495 3.01 1.495 2 2 C2 10.58 2 19.16 2 28 C1.34 28 0.68 28 0 28 C0 18.76 0 9.52 0 0 Z " fill="#444444" transform="translate(9,19)"/>
<path d="M0 0 C0 2.31 0 4.62 0 7 C-2.375 7.125 -2.375 7.125 -5 7 C-7 5 -7 5 -7.125 2.375 C-7.08375 1.59125 -7.0425 0.8075 -7 0 C-3.86650268 -1.04449911 -3.01031744 -0.93423645 0 0 Z " fill="#5D5C5C" transform="translate(49,9)"/>
<path d="M0 0 C0 0.33 0 0.66 0 1 C-1.98 1.66 -3.96 2.32 -6 3 C-6.042721 4.66611905 -6.04063832 6.33382885 -6 8 C-4.93354885 9.29633621 -4.93354885 9.29633621 -2.4375 9.0625 C-1.633125 9.041875 -0.82875 9.02125 0 9 C0.66 7.02 1.32 5.04 2 3 C2.33 3 2.66 3 3 3 C3.36 8.4 3.36 8.4 1.875 10.875 C-0.91106042 12.54663625 -2.81988862 12.46376624 -6 12 C-8.35210784 9.88310295 -8.91810953 8.55958485 -9.375 5.4375 C-9 3 -9 3 -7.875 1.1875 C-5.22464043 -0.49106106 -3.06753576 -0.20450238 0 0 Z " fill="#3C3C3C" transform="translate(49,6)"/>
<path d="M0 0 C0.66 0 1.32 0 2 0 C2.45375 0.94875 2.9075 1.8975 3.375 2.875 C4.80238254 6.00313679 4.80238254 6.00313679 7 8 C4.37684968 9.31157516 2.76966564 8.89649988 -0.125 8.5625 C-1.49011719 8.40974609 -1.49011719 8.40974609 -2.8828125 8.25390625 C-3.58148437 8.17011719 -4.28015625 8.08632813 -5 8 C-5 7.34 -5 6.68 -5 6 C-4.360625 5.525625 -3.72125 5.05125 -3.0625 4.5625 C-0.71627037 3.0908635 -0.71627037 3.0908635 0 0 Z " fill="#3E3E3E" transform="translate(35,13)"/>
<path d="M0 0 C1.67542976 0.28604898 3.34385343 0.61781233 5 1 C5 2.65 5 4.3 5 6 C2.625 6.625 2.625 6.625 0 7 C-0.66 6.34 -1.32 5.68 -2 5 C-1.46428571 1.46428571 -1.46428571 1.46428571 0 0 Z " fill="#616060" transform="translate(21,4)"/>
<path d="M0 0 C0.99 0 1.98 0 3 0 C3 4.29 3 8.58 3 13 C2.01 13 1.02 13 0 13 C0 8.71 0 4.42 0 0 Z " fill="#5D5B5B" transform="translate(16,26)"/>
<path d="M0 0 C1.65 0 3.3 0 5 0 C5.5625 1.9375 5.5625 1.9375 6 4 C5 5 5 5 2.4375 5.0625 C1.2309375 5.0315625 1.2309375 5.0315625 0 5 C0 3.35 0 1.7 0 0 Z " fill="#2E9D50" transform="translate(155,2)"/>
</svg>
